Coordinates
version=1
nRows=9
nColumns=36
inDegrees=yes

Units are S.I. units (second, meters, Newtons, ...)
If the header above contains a line with 'inDegrees', this indicates whether rotational values are in degrees (yes) or radians (no).

endheader
time	pelvis_tilt	pelvis_list	pelvis_rotation	pelvis_tx	pelvis_ty	pelvis_tz	hip_flexion_r	hip_adduction_r	hip_rotation_r	knee_angle_r	knee_angle_r_beta	ankle_angle_r	subtalar_angle_r	mtp_angle_r	hip_flexion_l	hip_adduction_l	hip_rotation_l	knee_angle_l	knee_angle_l_beta	ankle_angle_l	subtalar_angle_l	mtp_angle_l	lumbar_extension	lumbar_bending	lumbar_rotation	arm_flex_r	arm_add_r	arm_rot_r	elbow_flex_r	pro_sup_r	arm_flex_l	arm_add_l	arm_rot_l	elbow_flex_l	pro_sup_l
      1.04000000	      3.68484007	      0.77355027	      4.85241675	      1.11156102	      1.04085028	     -0.20475979	     19.01015444	     -0.01838185	     -6.45838376	      7.80770639	      0.13627018	      0.63772252	     -2.17511162	     -7.32101606	    -12.67982156	      5.34891138	      7.51245976	      6.29802913	      0.10992134	     18.30125118	      6.76670002	     -7.32101606	     -7.89701500	     -1.19646818	    -10.85753834	    -10.50378298	     -7.76353642	     -2.99175727	     27.89288234	    102.92669199	     12.59676511	    -16.90629457	      6.63448406	     52.51100686	     94.70304607
      1.05000000	      3.42191906	      0.79451991	      5.07341985	      1.12414847	      1.03820801	     -0.20431896	     18.71330982	      0.01296916	     -7.28192632	      4.38729885	      0.07657281	      1.44921089	      0.06856795	     -7.32709863	    -12.92443080	      5.23251540	      7.20492267	      6.81205835	      0.11889285	     19.31630056	      7.51245053	     -7.32709863	     -7.57798926	     -1.20120773	    -10.98932839	    -10.86623393	     -7.75006638	     -3.05275026	     27.23920461	    102.91251942	     12.70669002	    -16.94676100	      6.58908532	     53.37111917	     94.62077536
      1.06000000	      2.95889804	      0.84089026	      5.19325920	      1.13659777	      1.03526762	     -0.20373140	     18.78780236	      0.06225371	     -7.19704793	      1.65793625	      0.02893645	      2.19766902	      1.15065829	     -7.32827561	    -12.91503086	      5.22341148	      7.24969503	      7.40520884	      0.12924528	     19.89095269	      7.41545206	     -7.32827561	     -7.04050586	     -1.26391058	    -10.87625558	    -11.34120559	     -7.75363088	     -3.09536848	     26.77002844	    102.88116812	     12.91895468	    -16.86687524	      6.64162813	     53.98006703	     94.65859846
      1.07000000	      2.62431272	      0.85423013	      5.36439270	      1.14896481	      1.03252258	     -0.20320445	     19.31894815	     -0.06394280	     -9.16013901	      0.64079418	      0.01118397	      4.65770315	      5.50057670	     -7.33577269	    -12.91537866	      5.11935020	      6.89798871	      8.20958613	      0.14328431	     21.11369449	      8.12446120	     -7.33577269	     -6.71295229	     -1.25887049	    -11.11836320	    -11.42592882	     -7.73551708	     -3.05030822	     25.93524960	    102.78087674	     12.80769735	    -16.99600770	      6.50336316	     54.94042733	     94.56304692
      1.08000000	      2.23903796	      0.85602736	      5.45003992	      1.16132913	      1.02978278	     -0.20266811	     20.03741583	     -0.16234395	    -10.31803914	      0.38165035	      0.00666106	      6.79033614	      8.50697800	     -7.34331611	    -12.85363588	      5.06811698	      6.91431036	      9.04964761	      0.15794615	     21.81576028	      8.10182454	     -7.34331611	     -6.30442586	     -1.22273250	    -11.12922090	    -11.61827234	     -7.79173946	     -2.92968575	     25.31346430	    102.64960096	     12.77469299	    -16.93742653	      6.41714762	     55.67552653	     94.48725090
      1.09000000	      1.93724805	      0.78339238	      5.57807333	      1.17385675	      1.02736127	     -0.20213914	     20.49461786	     -0.15028906	    -10.36829208	      0.31260860	      0.00545605	      8.13829303	      9.87442996	     -7.34701159	    -12.84408433	      4.92488706	      7.08241240	      9.94573525	      0.17358583	     22.33980540	      7.81396662	     -7.34701159	     -5.97442062	     -1.09655440	    -11.15147335	    -11.79016228	     -7.80618184	     -2.99369792	     24.73157245	    102.53086143	     12.73381352	    -16.88745499	      6.45362081	     56.29376874	     94.50295183
      1.10000000	      1.95589662	      0.56356249	      5.74959974	      1.18674641	      1.02561297	     -0.20162654	     20.40098493	      0.07459115	     -9.90338363	      0.30300278	      0.00528840	      8.58702808	     10.19859399	     -7.34772930	    -13.18910127	      4.57190272	      7.28967993	     10.81620284	      0.18877835	     22.52699508	      7.58123532	     -7.34772930	     -5.99168749	     -0.74282521	    -11.08065467	    -12.01738251	     -7.86127073	     -3.04547595	     24.38132864	    102.48302651	     12.80623971	    -16.68566487	      6.48921280	     56.69685588	     94.53825801
      1.11000000	      2.15576038	      0.28509170	      6.01652029	      1.20005753	      1.02430301	     -0.20118988	     19.91821789	      0.37236921	     -9.28987795	      0.37515332	      0.00654766	      8.89607675	     10.25444066	     -7.34928012	    -13.61782185	      4.11918833	      7.40486137	     11.94359963	      0.20845514	     23.00245755	      7.07445985	     -7.34928012	     -6.15005231	     -0.32959950	    -11.18984731	    -12.09285455	     -7.86595740	     -3.21267537	     23.83540974	    102.37532227	     12.66961425	    -16.56401652	      6.51421412	     57.23720251	     94.58588684
      1.12000000	      2.50126643	     -0.08718287	      6.29350720	      1.21366766	      1.02346529	     -0.20067641	     19.13899482	      0.85327518	     -8.00921815	      0.51090373	      0.00891695	      8.17545384	      8.76624659	     -7.35369915	    -14.21206019	      3.52659662	      7.60951210	     13.01636376	      0.22717840	     23.06370225	      6.66115793	     -7.35369915	     -6.48026607	      0.21816192	    -11.46460182	    -12.02007801	     -7.89821811	     -3.51302594	     23.21906379	    102.14828006	     12.25322320	    -16.48210476	      6.16274553	     58.03240414	     94.64454132
